# xmcd
#
# Track frame offsets:
#	180
#	18415
#	38659
#	54392
#	67897
#	86113
#	106358
#	122177
#
# Disc length: 1808 seconds
#
# Revision: 1
# Processed by: cddbd v1.5.2PL0 Copyright (c) Steve Scherf et al.
# Submitted via: audiograbber 1.83.01
#
DISCID=62070e08
DTITLE=Faith Hill - SC7721
DYEAR=2007
DGENRE=Country
TTITLE0=But I Will
TTITLE1=Piece Of My Heart
TTITLE2=Take Me As I Am
TTITLE3=Wild One
TTITLE4=But I Will (w/vocals)
TTITLE5=Piece Of My Heart (w/vocals)
TTITLE6=Take Me As I Am (w/vocals)
TTITLE7=Wild One (w/vocals)
EXTD=
EXTT0=
EXTT1=
EXTT2=
EXTT3=
EXTT4=
EXTT5=
EXTT6=
EXTT7=
PLAYORDER=
